<?xml version="1.0" encoding="UTF-8" standalone="no"?>
<!-- Created with Inkscape (http://www.inkscape.org/) -->

<svg
   xmlns:dc="http://purl.org/dc/elements/1.1/"
   xmlns:cc="http://creativecommons.org/ns#"
   xmlns:rdf="http://www.w3.org/1999/02/22-rdf-syntax-ns#"
   xmlns:svg="http://www.w3.org/2000/svg"
   xmlns="http://www.w3.org/2000/svg"
   xmlns:sodipodi="http://sodipodi.sourceforge.net/DTD/sodipodi-0.dtd"
   xmlns:inkscape="http://www.inkscape.org/namespaces/inkscape"
   width="744.09448819"
   height="1052.3622047"
   id="svg2"
   version="1.1"
   inkscape:version="0.48.4 r9939"
   sodipodi:docname="1.svg">
  <defs
     id="defs4" />
  <sodipodi:namedview
     id="base"
     pagecolor="#ffffff"
     bordercolor="#666666"
     borderopacity="1.0"
     inkscape:pageopacity="0.0"
     inkscape:pageshadow="2"
     inkscape:zoom="0.558743"
     inkscape:cx="372.04724"
     inkscape:cy="526.18109"
     inkscape:document-units="px"
     inkscape:current-layer="layer1"
     showgrid="false"
     inkscape:snap-object-midpoints="true"
     inkscape:object-paths="false"
     inkscape:snap-intersection-paths="false"
     inkscape:snap-nodes="true"
     inkscape:snap-smooth-nodes="false"
     inkscape:snap-global="true"
     inkscape:snap-bbox="false"
     inkscape:window-width="1301"
     inkscape:window-height="744"
     inkscape:window-x="65"
     inkscape:window-y="24"
     inkscape:window-maximized="1" />
  <metadata
     id="metadata7">
    <rdf:RDF>
      <cc:Work
         rdf:about="">
        <dc:format>image/svg+xml</dc:format>
        <dc:type
           rdf:resource="http://purl.org/dc/dcmitype/StillImage" />
        <dc:title></dc:title>
      </cc:Work>
    </rdf:RDF>
  </metadata>
  <g
     inkscape:label="Layer 1"
     inkscape:groupmode="layer"
     id="layer1">
    <path
       style="fill:#e6e6e6;fill-opacity:1;fill-rule:evenodd;stroke:#000000;stroke-width:0.48870409px;stroke-linecap:butt;stroke-linejoin:miter;stroke-opacity:1"
       d="m 310.00889,543.48618 c -44.12635,-31.37561 -103.71022,-31.37527 -147.83744,0 l 43.10935,43.10935 c 19.31826,-9.74271 42.29936,-9.74153 61.61874,0 l 43.10935,-43.10935 z m 30.30182,30.30181 -43.10936,43.10936 c 9.74153,19.31937 9.7427,42.30047 0,61.61873 l 43.10936,43.10936 c 31.37526,-44.12724 31.3756,-103.7111 0,-147.83745 z m -208.45188,0.0108 c -31.36848,44.12807 -31.37244,103.71313 0,147.83745 l 43.12015,-43.12016 c -9.74217,-19.31632 -9.74752,-42.29129 -0.0108,-61.60793 L 131.85883,573.7988 z M 266.88874,708.8287 c -19.31665,9.73672 -42.29162,9.73137 -61.60794,-0.0108 l -43.12015,43.12016 c 44.12431,31.37244 103.70937,31.36848 147.83744,0 L 266.88874,708.8287 z"
       id="path3001"
       inkscape:connector-curvature="0"
       inkscape:export-filename="/home/tj/my/art/ic_pan.png"
       inkscape:export-xdpi="90"
       inkscape:export-ydpi="90" />
  </g>
</svg>
