<?xml version="1.0" encoding="UTF-8" standalone="no"?>
<!-- Created with Inkscape (http://www.inkscape.org/) -->

<svg
   xmlns:dc="http://purl.org/dc/elements/1.1/"
   xmlns:cc="http://creativecommons.org/ns#"
   xmlns:rdf="http://www.w3.org/1999/02/22-rdf-syntax-ns#"
   xmlns:svg="http://www.w3.org/2000/svg"
   xmlns="http://www.w3.org/2000/svg"
   xmlns:sodipodi="http://sodipodi.sourceforge.net/DTD/sodipodi-0.dtd"
   xmlns:inkscape="http://www.inkscape.org/namespaces/inkscape"
   width="210mm"
   height="297mm"
   viewBox="0 0 744.09448819 1052.3622047"
   id="svg2"
   version="1.1"
   inkscape:version="0.91 r13725"
   sodipodi:docname="CD.svg">
  <defs
     id="defs4" />
  <sodipodi:namedview
     id="base"
     pagecolor="#ffffff"
     bordercolor="#666666"
     borderopacity="1.0"
     inkscape:pageopacity="0.0"
     inkscape:pageshadow="2"
     inkscape:zoom="0.7"
     inkscape:cx="363.2449"
     inkscape:cy="572.3001"
     inkscape:document-units="px"
     inkscape:current-layer="layer1"
     showgrid="true"
     inkscape:snap-grids="true"
     inkscape:snap-object-midpoints="true"
     inkscape:window-width="1301"
     inkscape:window-height="744"
     inkscape:window-x="65"
     inkscape:window-y="24"
     inkscape:window-maximized="1">
    <inkscape:grid
       type="xygrid"
       id="grid3354" />
  </sodipodi:namedview>
  <metadata
     id="metadata7">
    <rdf:RDF>
      <cc:Work
         rdf:about="">
        <dc:format>image/svg+xml</dc:format>
        <dc:type
           rdf:resource="http://purl.org/dc/dcmitype/StillImage" />
        <dc:title />
      </cc:Work>
    </rdf:RDF>
  </metadata>
  <g
     inkscape:label="Layer 1"
     inkscape:groupmode="layer"
     id="layer1">
    <circle
       style="fill:none;fill-rule:evenodd;stroke:#000000;stroke-width:1px;stroke-linecap:butt;stroke-linejoin:miter;stroke-opacity:1"
       id="path3340"
       cx="375"
       cy="461.64792"
       r="322.14285" />
    <g
       transform="matrix(0.19814956,0,0,0.19814956,136.27379,322.3104)"
       id="layer1-3"
       style="fill:#000000">
      <g
         transform="matrix(8.5205125,0,0,8.5205125,-5873.1197,3391.8596)"
         id="g6547"
         style="fill:#000000">
        <path
           inkscape:connector-curvature="0"
           d="m 785.70824,-452.59672 2.1,0 1.4475,4.10375 0.02,0 1.45625,-4.10375 2.0925,0 0,6.29375 -1.3875,0 0,-4.8275 -0.0213,0 -1.65125,4.8275 -1.05875,0 -1.59,-4.8275 -0.0213,0 0,4.8275 -1.38625,0 0,-6.29375"
           id="path6423"
           style="fill:#000000;fill-opacity:1;fill-rule:nonzero;stroke:none" />
        <path
           inkscape:connector-curvature="0"
           d="m 803.35074,-448.81047 -1.5375,0 0.765,-1.95375 0.7725,1.95375 z m -4.0275,2.5075 1.52875,0 0.525,-1.33125 2.44625,0 0.54375,1.33125 1.56625,0 -2.74125,-6.29375 -1.1475,0 -2.72125,6.29375"
           id="path6427"
           style="fill:#000000;fill-opacity:1;fill-rule:nonzero;stroke:none" />
        <path
           inkscape:connector-curvature="0"
           d="m 813.99574,-451.42297 0.90875,0 c 0.5075,0 1.075,0.0975 1.075,0.73 0,0.68375 -0.6575,0.69875 -1.16625,0.69875 l -0.8175,0 0,-1.42875 z m -1.38625,5.12 1.38625,0 0,-2.52 0.6875,0 1.3175,2.52 1.66,0 -1.6025,-2.65625 c 0.89125,-0.16375 1.35875,-0.8425 1.35875,-1.73125 0,-1.465 -1.08125,-1.90625 -2.3675,-1.90625 l -2.44,0 0,6.29375"
           id="path6431"
           style="fill:#000000;fill-opacity:1;fill-rule:nonzero;stroke:none" />
        <path
           inkscape:connector-curvature="0"
           d="m 823.79824,-452.59672 1.5825,0 1.555,4.125 0.0187,0 1.5825,-4.125 1.4875,0 -2.59875,6.29375 -1.1125,0 -2.515,-6.29375"
           id="path6435"
           style="fill:#000000;fill-opacity:1;fill-rule:nonzero;stroke:none" />
        <path
           inkscape:connector-curvature="0"
           d="m 836.24949,-452.59672 4.2725,0 0,1.28125 -2.89125,0 0,1.17375 2.7325,0 0,1.28 -2.7325,0 0,1.27625 3.0525,0 0,1.2825 -4.43375,0 0,-6.29375"
           id="path6439"
           style="fill:#000000;fill-opacity:1;fill-rule:nonzero;stroke:none" />
        <path
           inkscape:connector-curvature="0"
           d="m 847.89699,-452.59672 1.39,0 0,5.01125 2.565,0 0,1.2825 -3.955,0 0,-6.29375"
           id="path6443"
           style="fill:#000000;fill-opacity:1;fill-rule:nonzero;stroke:none" />
        <path
           inkscape:connector-curvature="0"
           d="m 858.71824,-452.59672 1.38625,0 0,5.01125 2.57375,0 0,1.2825 -3.96,0 0,-6.29375"
           id="path6447"
           style="fill:#000000;fill-opacity:1;fill-rule:nonzero;stroke:none" />
        <path
           inkscape:connector-curvature="0"
           d="m 866.71824,-453.29797 c 1.17375,0 2.11125,0.96 2.11125,2.13125 0,1.20125 -0.9375,2.14875 -2.12375,2.14875 -1.17625,0 -2.13625,-0.9475 -2.13625,-2.14875 0,-1.17125 0.96,-2.13125 2.13625,-2.13125 l 0.0125,0 z m -0.0225,0.4275 c -0.8925,0 -1.61375,0.76875 -1.61375,1.71625 0,0.96125 0.72125,1.70875 1.62375,1.70875 0.89875,0.01 1.63125,-0.7475 1.63125,-1.70875 0,-0.9475 -0.7325,-1.71625 -1.63125,-1.71625 l -0.01,0 z m -0.36125,2.94875 -0.505,0 0,-2.37 c 0.1925,-0.03 0.4,-0.0663 0.76125,-0.0663 0.40875,0 0.655,0.0663 0.81375,0.1875 0.13375,0.105 0.2125,0.26875 0.2125,0.515 0,0.28625 -0.2,0.48125 -0.45625,0.55 l 0,0.0213 c 0.2075,0.0375 0.34125,0.2225 0.3775,0.57625 0.0488,0.36625 0.0975,0.51375 0.135,0.58625 l -0.525,0 c -0.0512,-0.085 -0.0925,-0.2925 -0.1375,-0.6125 -0.0363,-0.25625 -0.195,-0.36375 -0.45125,-0.36375 l -0.225,0 0,0.97625 z m 0,-1.3675 0.24,0 c 0.2925,0 0.5225,-0.0875 0.5225,-0.34125 0,-0.195 -0.14375,-0.34875 -0.48625,-0.34875 -0.125,0 -0.2075,0 -0.27625,0.007 l 0,0.6825"
           id="path6451"
           style="fill:#000000;fill-opacity:1;fill-rule:nonzero;stroke:none" />
        <path
           inkscape:connector-curvature="0"
           d="M 400.5625,168.9375 368.75,200.75 l 17.78125,0 14.03125,-14.125 11.78125,0 -0.96875,0.9375 -10.8125,0 0,3.46875 7.375,0 -0.90625,0.90625 -6.46875,0 0,3.4375 3,0 -0.90625,0.90625 -2.09375,0 0,2.09375 -2.375,2.375 17.8125,0 14.03125,-14.125 15.75,0 0,-17.6875 -15.71875,0 -0.0312,0 -13.71875,13.71875 0,-13.71875 -15.71875,0 -0.0312,0 z m 1.09375,1.09375 13.5625,0 0,15.53125 -13.5625,0 0,-15.53125 z m 29.46875,0 13.5625,0 0,15.53125 -13.5625,0 0,-15.53125 z m -1.09375,17.53125 0,3.46875 15.75,0 0,-3.46875 -15.75,0 z m -28.375,1.09375 13.5625,0 0,1.28125 -13.5625,0 0,-1.28125 z m 29.46875,0 13.5625,0 0,1.28125 -13.5625,0 0,-1.28125 z m -1.09375,3.28125 0,3.4375 15.75,0 0,-3.4375 -15.75,0 z m -28.375,1.09375 13.5625,0 0,1.25 -13.5625,0 0,-1.25 z m 29.46875,0 13.5625,0 0,1.25 -13.5625,0 0,-1.25 z m -1.09375,3.25 0,3.4375 15.75,0 0,-3.4375 -15.75,0 z m -28.375,1.09375 13.5625,0 0,1.28125 -13.5625,0 0,-1.28125 z m 29.46875,0 13.5625,0 0,1.28125 -13.5625,0 0,-1.28125 z"
           transform="translate(416.90827,-659.89361)"
           id="path6453"
           style="fill:#000000;fill-opacity:1;fill-rule:nonzero;stroke:none" />
        <path
           inkscape:connector-curvature="0"
           d="m 866.71824,-491.04922 c 1.17375,0 2.11125,0.95375 2.11125,2.13625 0,1.19125 -0.9375,2.14375 -2.12375,2.14375 -1.17625,0 -2.13625,-0.9525 -2.13625,-2.14375 0,-1.1825 0.96,-2.13625 2.13625,-2.13625 l 0.0125,0 z m -0.0225,0.4275 c -0.8925,0 -1.61375,0.76875 -1.61375,1.71625 0,0.95875 0.72125,1.71375 1.62375,1.71375 0.89875,0.002 1.63125,-0.755 1.63125,-1.71375 0,-0.9475 -0.7325,-1.71625 -1.63125,-1.71625 l -0.01,0 z m -0.36125,2.95375 -0.505,0 0,-2.3775 c 0.1925,-0.0275 0.4,-0.0637 0.76125,-0.0637 0.40875,0 0.655,0.0637 0.81375,0.185 0.13375,0.1075 0.2125,0.26875 0.2125,0.5125 0,0.28625 -0.2,0.48875 -0.45625,0.55 l 0,0.0213 c 0.2075,0.04 0.34125,0.2275 0.3775,0.57625 0.0488,0.37625 0.0975,0.5125 0.135,0.59625 l -0.525,0 c -0.0512,-0.09 -0.0925,-0.29375 -0.1375,-0.6225 -0.0363,-0.25375 -0.195,-0.35875 -0.45125,-0.35875 l -0.225,0 0,0.98125 z m 0,-1.3725 0.24,0 c 0.2925,0 0.5225,-0.0925 0.5225,-0.34125 0,-0.2 -0.14375,-0.35 -0.48625,-0.35 -0.125,0 -0.2075,0 -0.27625,0.0125 l 0,0.67875"
           id="path6475"
           style="fill:#000000;fill-opacity:1;fill-rule:nonzero;stroke:none" />
      </g>
    </g>
    <flowRoot
       xml:space="preserve"
       id="flowRoot3356"
       style="font-style:normal;font-weight:normal;font-size:30px;line-height:125%;font-family:sans-serif;text-align:center;letter-spacing:0px;word-spacing:0px;text-anchor:middle;fill:#000000;fill-opacity:1;stroke:none;stroke-width:1px;stroke-linecap:butt;stroke-linejoin:miter;stroke-opacity:1"
       transform="matrix(0.92002029,0,0,1,13.344371,-44.285714)"><flowRegion
         id="flowRegion3358"><rect
           id="rect3360"
           width="420"
           height="60"
           x="180"
           y="292.36221"
           style="font-size:30px;text-align:center;text-anchor:middle" /></flowRegion><flowPara
         id="flowPara3362">PXA270-D Evaluation Board</flowPara></flowRoot>    <flowRoot
       xml:space="preserve"
       id="flowRoot3356-3"
       style="font-style:normal;font-weight:normal;font-size:30px;line-height:125%;font-family:sans-serif;text-align:center;letter-spacing:0px;word-spacing:0px;text-anchor:middle;fill:#000000;fill-opacity:1;stroke:none;stroke-width:1px;stroke-linecap:butt;stroke-linejoin:miter;stroke-opacity:1"
       transform="matrix(0.92002029,0,0,1,18.201512,0.571425)"><flowRegion
         id="flowRegion3358-6"><rect
           id="rect3360-7"
           width="420"
           height="60"
           x="180"
           y="292.36221"
           style="font-size:30px;text-align:center;text-anchor:middle" /></flowRegion><flowPara
         id="flowPara3362-5">Development Kit (Part I)</flowPara></flowRoot>  </g>
</svg>
